<svg width="2615" height="2316" viewBox="0 0 2615 2316" fill="none" xmlns="http://www.w3.org/2000/svg">
<path d="M677.834 0.666627C661.701 2.39996 648.367 9.86663 639.301 22.1333C636.767 25.4666 610.767 70.4 581.434 122C421.967 403.067 263.034 682.267 101.834 964.533C49.3008 1056.53 4.90076 1135.47 3.16742 1139.87C-1.09924 1151.33 -1.09924 1166.27 3.43409 1177.87C5.30076 1182.67 36.3674 1238.4 72.5008 1301.87C234.767 1586.93 433.967 1938.27 582.634 2201.73C634.101 2293.2 638.901 2300.27 651.701 2307.87C665.167 2315.73 614.634 2315.2 1303.3 2315.2C1869.57 2315.33 1934.5 2315.07 1942.63 2313.2C1959.43 2309.33 1975.03 2298.4 1985.57 2283.07C1987.83 2279.6 2027.97 2209.47 2074.63 2127.07C2208.37 1890.8 2315.43 1702.8 2463.97 1442.93C2539.83 1310.4 2603.17 1199.07 2605.03 1195.6C2616.5 1172.8 2617.17 1148.27 2607.03 1125.07C2605.43 1121.47 2566.9 1053.47 2521.43 973.867C2359.17 689.867 2230.77 463.867 2074.1 187.2C2025.43 101.067 1983.7 28 1981.57 24.8C1973.17 12.6666 1963.3 5.46663 1949.83 1.86663C1945.17 0.666627 1802.37 0.133294 1314.5 -3.93684e-05C968.367 -3.93684e-05 681.834 0.266627 677.834 0.666627ZM1808.23 70.5333C1808.5 72.9333 1804.1 74.8 1769.57 86.9333C1748.1 94.4 1663.97 122.267 1582.5 148.667C1352.37 223.333 1125.17 297.333 1003.17 337.2C941.967 357.2 888.234 374.267 883.967 375.2C869.567 378.133 857.434 373.6 850.101 362.533C847.834 359.2 841.167 345.2 835.034 331.467C819.034 295.067 798.367 250 761.834 172.533C733.701 112.933 716.501 73.3333 716.501 68.5333C716.501 67.6 883.167 67.3333 1262.23 67.4666C1806.63 67.8666 1807.83 67.8666 1808.23 70.5333ZM1926.77 114.133C1928.5 115.733 1930.77 120 1931.83 123.733C1932.9 127.333 1946.23 199.067 1961.3 283.2C1976.37 367.2 2015.3 584.667 2047.97 766.533C2107.83 1099.73 2118.77 1165.73 2114.1 1163.87C2113.03 1163.47 2073.57 1139.47 2026.63 1110.67C1979.57 1081.73 1712.5 917.733 1433.17 746.267C1153.7 574.8 924.767 434 924.501 433.333C923.834 432.133 948.501 423.733 1089.83 377.2C1123.57 366.133 1767.03 156.933 1889.83 117.2C1914.9 109.067 1920.77 108.533 1926.77 114.133ZM668.501 129.067C674.634 138.4 689.301 168.933 724.501 244.8C750.634 301.467 776.767 357.733 782.501 369.867C794.367 395.067 796.501 401.2 796.501 409.733C796.367 418.133 792.901 425.333 784.367 434.133C780.367 438.267 737.567 479.333 689.167 525.467C596.101 614 427.834 774.8 253.301 941.867C159.967 1031.33 139.834 1049.87 136.501 1049.87C136.101 1049.87 134.501 1049.07 133.034 1048C131.034 1046.4 130.767 1045.47 131.967 1043.6C132.767 1042.27 251.434 833.2 395.834 578.8C540.101 324.533 658.634 116.533 659.167 116.533C659.701 116.533 663.834 122.267 668.501 129.067ZM2279.43 683.6C2487.57 1051.6 2526.63 1121.33 2524.77 1122.27C2516.77 1125.73 2412.77 1149.87 2330.9 1167.07C2299.43 1173.73 2260.63 1182.13 2244.5 1185.87C2228.5 1189.47 2212.23 1192.53 2208.37 1192.53C2193.57 1192.53 2189.03 1185.47 2183.3 1153.07C2181.03 1140.67 2163.03 1038.67 2143.3 926.533C2106.63 718.667 2025.17 260.133 2023.7 253.6C2023.17 250.667 2023.7 249.733 2026.77 248C2028.77 246.933 2030.77 246 2031.17 246C2031.57 246 2143.3 442.933 2279.43 683.6ZM1489.7 858.267C1824.37 1063.73 2098.1 1232.4 2097.97 1233.2C2097.83 1233.87 2051.43 1260.8 1994.77 1292.93C1108.23 1796.4 880.101 1925.87 879.701 1925.87C879.434 1925.87 879.167 1601.6 879.167 1205.2C879.167 808.8 879.567 484.533 880.234 484.533C880.767 484.667 1155.03 652.8 1489.7 858.267ZM805.567 1548.27L805.167 1897.73L456.901 1536.4C265.301 1337.73 108.367 1174.67 108.234 1174C107.967 1173.2 264.767 1021.73 456.501 837.467L805.167 502.267L805.567 850.667C805.701 1042.27 805.701 1356.13 805.567 1548.27ZM2530.23 1191.47C2528.77 1193.87 2408.37 1406.4 2262.5 1663.87C2116.63 1921.33 1997.17 2132.13 1997.03 2132.4C1996.77 2132.67 1995.17 2132.53 1993.43 2132C1990.37 2131.33 1990.37 2131.2 1991.43 2120.4C1992.77 2108.53 2068.63 1783.2 2163.83 1381.2C2179.83 1313.6 2187.03 1285.6 2189.83 1279.87C2193.97 1271.33 2201.7 1261.47 2206.1 1259.07C2211.57 1256.13 2288.9 1238.8 2425.17 1209.73C2459.7 1202.4 2496.9 1194.4 2507.83 1192C2534.23 1186 2533.43 1186.13 2530.23 1191.47ZM2111.7 1304.8C2111.43 1306.53 2109.97 1316 2108.63 1326.13C2107.03 1336.93 2092.5 1402.27 2072.5 1488.13C1991.7 1835.07 1913.57 2169.87 1910.9 2180.4C1907.03 2196.27 1902.63 2205.47 1897.43 2208C1889.03 2212.4 1906.37 2216.4 1620.5 2145.33C1012.77 1994.4 958.767 1980.8 947.434 1976.4C938.901 1972.93 936.901 1971.6 938.101 1970.53C939.034 1969.6 1022.9 1921.6 1124.5 1863.87C1399.7 1707.2 1437.3 1685.87 1787.83 1486C1965.3 1384.8 2110.9 1302 2111.3 1302C2111.7 1301.87 2111.97 1303.2 2111.7 1304.8ZM202.901 1370.13C209.567 1376.27 273.967 1442.4 345.967 1517.2C503.834 1680.93 614.101 1794.93 704.101 1887.33C740.901 1925.07 773.434 1958.93 776.501 1962.67C784.101 1971.73 788.634 1981.6 789.434 1990.8C790.501 2002.93 786.234 2013.2 767.834 2041.87C746.767 2074.8 743.167 2080.8 701.701 2150.93C682.101 2184.13 665.701 2211.47 665.301 2211.6C664.901 2211.73 556.234 2021.07 424.101 1787.87C204.501 1400.8 183.834 1363.6 185.567 1361.47C186.634 1360.27 188.367 1359.2 189.167 1359.2C190.101 1359.2 196.234 1364.13 202.901 1370.13ZM961.167 2045.07C1000.77 2055.07 1073.43 2073.33 1122.5 2085.73C1171.7 2098.13 1327.7 2137.47 1469.17 2173.07C1685.3 2227.47 1740.77 2242 1744.23 2245.2C1744.37 2245.33 1744.23 2246.53 1743.7 2247.73C1742.9 2249.73 1704.63 2249.87 1232.37 2249.87C951.567 2249.87 721.834 2249.47 721.834 2248.93C721.834 2246.8 779.034 2150.53 804.101 2110.53C815.034 2092.93 828.367 2070.67 833.701 2061.2C846.367 2038.27 851.567 2032.53 863.434 2028.27C875.301 2024 882.901 2025.33 961.167 2045.07Z" fill="#F17F3D"/>
</svg>
